<svg width="2507" height="1210" xmlns="http://www.w3.org/2000/svg" xmlns:xlink="http://www.w3.org/1999/xlink" xml:space="preserve" overflow="hidden"><defs><clipPath id="clip0"><rect x="1723" y="783" width="2507" height="1210"/></clipPath></defs><g clip-path="url(#clip0)" transform="translate(-1723 -783)"><rect x="0" y="0" width="1293" height="1199" stroke="#000000" stroke-width="10.3125" stroke-linecap="butt" stroke-linejoin="round" stroke-miterlimit="10" stroke-dasharray="41.25 30.9375" stroke-opacity="1" fill="#BEEBFF" fill-opacity="1" transform="matrix(1 0 0 -1 2331 1988)"/><path d="M2564.5 988C2564.5 904.881 2747.17 837.5 2972.5 837.5 3197.83 837.5 3380.5 904.881 3380.5 988 3380.5 1071.12 3197.83 1138.5 2972.5 1138.5 2747.17 1138.5 2564.5 1071.12 2564.5 988Z" stroke="#000000" stroke-width="3.4375" stroke-linecap="butt" stroke-linejoin="round" stroke-miterlimit="10" stroke-opacity="1" fill="#F99ACD" fill-rule="evenodd" fill-opacity="1"/><text fill="#000000" fill-opacity="1" font-family="Roboto Light,Roboto Light_MSFontService,sans-serif" font-style="normal" font-variant="normal" font-weight="700" font-stretch="normal" font-size="76" text-anchor="start" direction="ltr" writing-mode="lr-tb" unicode-bidi="normal" text-decoration="none" transform="matrix(1 0 0 1 2829.6 1015)">Controle<tspan fill="#000000" fill-opacity="1" font-family="Roboto Light,Roboto Light_MSFontService,sans-serif" font-style="normal" font-variant="normal" font-weight="300" font-stretch="normal" font-size="61" text-anchor="start" direction="ltr" writing-mode="lr-tb" unicode-bidi="normal" text-decoration="none" x="-233.606" y="219">ALUFN,</tspan><tspan fill="#000000" fill-opacity="1" font-family="Roboto Light,Roboto Light_MSFontService,sans-serif" font-style="normal" font-variant="normal" font-weight="300" font-stretch="normal" font-size="61" text-anchor="start" direction="ltr" writing-mode="lr-tb" unicode-bidi="normal" text-decoration="none" x="-262.252" y="292">regwrite</tspan><tspan fill="#000000" fill-opacity="1" font-family="Roboto Light,Roboto Light_MSFontService,sans-serif" font-style="normal" font-variant="normal" font-weight="300" font-stretch="normal" font-size="61" text-anchor="start" direction="ltr" writing-mode="lr-tb" unicode-bidi="normal" text-decoration="none" x="-45.1169" y="292">,</tspan><tspan fill="#000000" fill-opacity="1" font-family="Roboto Light,Roboto Light_MSFontService,sans-serif" font-style="normal" font-variant="normal" font-weight="300" font-stretch="normal" font-size="61" text-anchor="start" direction="ltr" writing-mode="lr-tb" unicode-bidi="normal" text-decoration="none" x="-257.669" y="366">reg </tspan><tspan fill="#000000" fill-opacity="1" font-family="Roboto Light,Roboto Light_MSFontService,sans-serif" font-style="normal" font-variant="normal" font-weight="300" font-stretch="normal" font-size="61" text-anchor="start" direction="ltr" writing-mode="lr-tb" unicode-bidi="normal" text-decoration="none" x="-156.836" y="366">dst</tspan><tspan fill="#000000" fill-opacity="1" font-family="Roboto Light,Roboto Light_MSFontService,sans-serif" font-style="normal" font-variant="normal" font-weight="300" font-stretch="normal" font-size="61" text-anchor="start" direction="ltr" writing-mode="lr-tb" unicode-bidi="normal" text-decoration="none" x="-72.617" y="366">… </tspan></text><path d="M2814.22 1138.5 2814.22 1437.04 2810.78 1437.04 2810.78 1138.5ZM2830.03 1410.4 2812.5 1440.45 2794.97 1410.4C2794.5 1409.58 2794.77 1408.53 2795.59 1408.05 2796.41 1407.58 2797.47 1407.85 2797.94 1408.67L2813.98 1436.17 2811.02 1436.17 2827.06 1408.67C2827.54 1407.85 2828.59 1407.58 2829.41 1408.05 2830.23 1408.53 2830.5 1409.58 2830.03 1410.4Z" fill="#000000" fill-rule="nonzero" fill-opacity="1"/><text fill="#000000" fill-opacity="1" font-family="Roboto Light,Roboto Light_MSFontService,sans-serif" font-style="normal" font-variant="normal" font-weight="300" font-stretch="normal" font-size="61" text-anchor="start" direction="ltr" writing-mode="lr-tb" unicode-bidi="normal" text-decoration="none" transform="matrix(1 0 0 1 3111.71 1227)">opcode<tspan fill="#000000" fill-opacity="1" font-family="Roboto Light,Roboto Light_MSFontService,sans-serif" font-style="normal" font-variant="normal" font-weight="300" font-stretch="normal" font-size="61" text-anchor="start" direction="ltr" writing-mode="lr-tb" unicode-bidi="normal" text-decoration="none" x="199.375" y="0">,</tspan><tspan fill="#000000" fill-opacity="1" font-family="Roboto Light,Roboto Light_MSFontService,sans-serif" font-style="normal" font-variant="normal" font-weight="300" font-stretch="normal" font-size="61" text-anchor="start" direction="ltr" writing-mode="lr-tb" unicode-bidi="normal" text-decoration="none" x="0" y="73">func</tspan><tspan fill="#000000" fill-opacity="1" font-family="Roboto Light,Roboto Light_MSFontService,sans-serif" font-style="normal" font-variant="normal" font-weight="300" font-stretch="normal" font-size="61" text-anchor="start" direction="ltr" writing-mode="lr-tb" unicode-bidi="normal" text-decoration="none" x="119.167" y="73">, </tspan><tspan fill="#000000" fill-opacity="1" font-family="Roboto Light,Roboto Light_MSFontService,sans-serif" font-style="normal" font-variant="normal" font-weight="300" font-stretch="normal" font-size="61" text-anchor="start" direction="ltr" writing-mode="lr-tb" unicode-bidi="normal" text-decoration="none" x="0" y="147">flagZ</tspan><tspan fill="#000000" fill-opacity="1" font-family="Roboto Light,Roboto Light_MSFontService,sans-serif" font-style="normal" font-variant="normal" font-weight="300" font-stretch="normal" font-size="61" text-anchor="start" direction="ltr" writing-mode="lr-tb" unicode-bidi="normal" text-decoration="none" x="151.823" y="147">…</tspan></text><path d="M3089.22 1141.9 3089.22 1440.44 3085.78 1440.44 3085.78 1141.9ZM3069.97 1168.54 3087.5 1138.49 3105.03 1168.54C3105.5 1169.36 3105.23 1170.41 3104.41 1170.89 3103.59 1171.37 3102.54 1171.09 3102.06 1170.27L3086.02 1142.77 3088.98 1142.77 3072.94 1170.27C3072.46 1171.09 3071.41 1171.37 3070.59 1170.89 3069.77 1170.41 3069.5 1169.36 3069.97 1168.54Z" fill="#000000" fill-rule="nonzero" fill-opacity="1"/><rect x="2707.5" y="1440.5" width="534" height="460" stroke="#000000" stroke-width="3.4375" stroke-linecap="butt" stroke-linejoin="round" stroke-miterlimit="10" stroke-opacity="1" fill="#DAE3F3" fill-opacity="1"/><text fill="#000000" fill-opacity="1" font-family="Roboto Light,Roboto Light_MSFontService,sans-serif" font-style="normal" font-variant="normal" font-weight="300" font-stretch="normal" font-size="73" text-anchor="start" direction="ltr" writing-mode="lr-tb" unicode-bidi="normal" text-decoration="none" transform="matrix(1 0 0 1 2771.64 1652)">RISC231<tspan fill="#000000" fill-opacity="1" font-family="Roboto Light,Roboto Light_MSFontService,sans-serif" font-style="normal" font-variant="normal" font-weight="300" font-stretch="normal" font-size="73" text-anchor="start" direction="ltr" writing-mode="lr-tb" unicode-bidi="normal" text-decoration="none" x="279.011" y="0">-</tspan><tspan fill="#000000" fill-opacity="1" font-family="Roboto Light,Roboto Light_MSFontService,sans-serif" font-style="normal" font-variant="normal" font-weight="300" font-stretch="normal" font-size="73" text-anchor="start" direction="ltr" writing-mode="lr-tb" unicode-bidi="normal" text-decoration="none" x="300.209" y="0">M1 </tspan><tspan fill="#000000" fill-opacity="1" font-family="Roboto Light,Roboto Light_MSFontService,sans-serif" font-style="normal" font-variant="normal" font-weight="300" font-stretch="normal" font-size="73" text-anchor="start" direction="ltr" writing-mode="lr-tb" unicode-bidi="normal" text-decoration="none" x="55" y="88">Datapath</tspan></text><rect x="1727.5" y="1440.5" width="535" height="460" stroke="#000000" stroke-width="3.4375" stroke-linecap="butt" stroke-linejoin="round" stroke-miterlimit="10" stroke-opacity="1" fill="#B9FFB8" fill-opacity="1"/><text fill="#000000" fill-opacity="1" font-family="Roboto Light,Roboto Light_MSFontService,sans-serif" font-style="normal" font-variant="normal" font-weight="300" font-stretch="normal" font-size="73" text-anchor="start" direction="ltr" writing-mode="lr-tb" unicode-bidi="normal" text-decoration="none" transform="matrix(1 0 0 1 1802.46 1652)">Memória<tspan fill="#000000" fill-opacity="1" font-family="Roboto Light,Roboto Light_MSFontService,sans-serif" font-style="normal" font-variant="normal" font-weight="300" font-stretch="normal" font-size="73" text-anchor="start" direction="ltr" writing-mode="lr-tb" unicode-bidi="normal" text-decoration="none" x="305.938" y="0">de </tspan><tspan fill="#000000" fill-opacity="1" font-family="Roboto Light,Roboto Light_MSFontService,sans-serif" font-style="normal" font-variant="normal" font-weight="300" font-stretch="normal" font-size="73" text-anchor="start" direction="ltr" writing-mode="lr-tb" unicode-bidi="normal" text-decoration="none" x="22.6417" y="88">Instruções</tspan></text><rect x="3692.5" y="1440.5" width="535" height="460" stroke="#000000" stroke-width="3.4375" stroke-linecap="butt" stroke-linejoin="round" stroke-miterlimit="10" stroke-opacity="1" fill="#B8FFB8" fill-opacity="1"/><text fill="#000000" fill-opacity="1" font-family="Roboto Light,Roboto Light_MSFontService,sans-serif" font-style="normal" font-variant="normal" font-weight="300" font-stretch="normal" font-size="73" text-anchor="start" direction="ltr" writing-mode="lr-tb" unicode-bidi="normal" text-decoration="none" transform="matrix(1 0 0 1 3767.56 1652)">Memória<tspan fill="#000000" fill-opacity="1" font-family="Roboto Light,Roboto Light_MSFontService,sans-serif" font-style="normal" font-variant="normal" font-weight="300" font-stretch="normal" font-size="73" text-anchor="start" direction="ltr" writing-mode="lr-tb" unicode-bidi="normal" text-decoration="none" x="305.938" y="0">de </tspan><tspan fill="#000000" fill-opacity="1" font-family="Roboto Light,Roboto Light_MSFontService,sans-serif" font-style="normal" font-variant="normal" font-weight="300" font-stretch="normal" font-size="73" text-anchor="start" direction="ltr" writing-mode="lr-tb" unicode-bidi="normal" text-decoration="none" x="88.8023" y="88">Dados</tspan></text><path d="M0.0110759-1.71871 441.1 1.12378 441.077 4.56121-0.0110759 1.71871ZM414.565-14.8551 444.496 2.86445 414.339 20.1968C413.516 20.6698 412.465 20.386 411.992 19.563 411.519 18.74 411.803 17.6894 412.626 17.2164L440.229 1.3523 440.209 4.32148 412.813-11.8971C411.997-12.3806 411.726-13.4348 412.21-14.2517 412.694-15.0685 413.748-15.3387 414.565-14.8551Z" fill="#000000" fill-rule="nonzero" fill-opacity="1" transform="matrix(-1 0 0 1 2706.99 1520.5)"/><path d="M0.012922-1.7187 441.094 1.59755 441.068 5.03495-0.012922 1.7187ZM414.584-14.4098 444.496 3.34192 414.32 20.6418C413.497 21.1139 412.446 20.8291 411.974 20.0056 411.502 19.1821 411.787 18.1318 412.61 17.6597L440.23 1.82519 440.208 4.79434 412.829-11.4536C412.013-11.9381 411.744-12.9925 412.228-13.8089 412.713-14.6252 413.767-14.8942 414.584-14.4098Z" fill="#000000" fill-rule="nonzero" fill-opacity="1" transform="matrix(1 0 0 -1 2262.5 1707.84)"/><text fill="#000000" fill-opacity="1" font-family="Roboto Light,Roboto Light_MSFontService,sans-serif" font-style="normal" font-variant="normal" font-weight="300" font-stretch="normal" font-size="69" text-anchor="start" direction="ltr" writing-mode="lr-tb" unicode-bidi="normal" text-decoration="none" transform="matrix(1 0 0 1 2458.21 1506)">pc<tspan fill="#000000" fill-opacity="1" font-family="Roboto Light,Roboto Light_MSFontService,sans-serif" font-style="normal" font-variant="normal" font-weight="300" font-stretch="normal" font-size="69" text-anchor="start" direction="ltr" writing-mode="lr-tb" unicode-bidi="normal" text-decoration="none" x="-19.9434" y="265">instr</tspan></text><path d="M3295.45 1084.07 3817.14 1431.94 3815.24 1434.8 3293.55 1086.93ZM3803.74 1404.01 3819.01 1435.26 3784.29 1433.17C3783.35 1433.11 3782.62 1432.3 3782.68 1431.35 3782.74 1430.4 3783.55 1429.68 3784.5 1429.74L3816.28 1431.65 3814.63 1434.12 3800.65 1405.52C3800.23 1404.66 3800.59 1403.63 3801.44 1403.22 3802.29 1402.8 3803.32 1403.15 3803.74 1404.01Z" fill="#000000" fill-rule="nonzero" fill-opacity="1"/><text fill="#000000" fill-opacity="1" font-family="Roboto Light,Roboto Light_MSFontService,sans-serif" font-style="normal" font-variant="normal" font-weight="300" font-stretch="normal" font-size="69" text-anchor="start" direction="ltr" writing-mode="lr-tb" unicode-bidi="normal" text-decoration="none" transform="matrix(1 0 0 1 3656.18 1296)">memwrite</text><path d="M3242.5 1627.78 3690.75 1627.78 3690.75 1631.22 3242.5 1631.22ZM3664.11 1611.97 3694.16 1629.5 3664.11 1647.03C3663.29 1647.5 3662.24 1647.23 3661.76 1646.41 3661.28 1645.59 3661.56 1644.54 3662.38 1644.06L3689.88 1628.02 3689.88 1630.98 3662.38 1614.94C3661.56 1614.46 3661.28 1613.41 3661.76 1612.59 3662.24 1611.77 3663.29 1611.5 3664.11 1611.97Z" fill="#000000" fill-rule="nonzero" fill-opacity="1"/><text fill="#000000" fill-opacity="1" font-family="Roboto Light,Roboto Light_MSFontService,sans-serif" font-style="normal" font-variant="normal" font-weight="300" font-stretch="normal" font-size="69" text-anchor="start" direction="ltr" writing-mode="lr-tb" unicode-bidi="normal" text-decoration="none" transform="matrix(1 0 0 1 3315.97 1600)">dataaddr</text><path d="M1.37338e-06-1.71875 448.252-1.71839 448.252 1.71911-1.37338e-06 1.71875ZM421.612-17.526 451.657 0.000360292 421.612 17.5266C420.792 18.0049 419.74 17.728 419.262 16.908 418.783 16.0881 419.06 15.0357 419.88 14.5574L447.38-1.48426 447.38 1.48498 419.88-14.5567C419.06-15.035 418.783-16.0874 419.262-16.9074 419.74-17.7273 420.792-18.0042 421.612-17.526Z" fill="#000000" fill-rule="nonzero" fill-opacity="1" transform="matrix(-1 0 0 1 3694.15 1831.5)"/><text fill="#000000" fill-opacity="1" font-family="Roboto Light,Roboto Light_MSFontService,sans-serif" font-style="normal" font-variant="normal" font-weight="300" font-stretch="normal" font-size="69" text-anchor="start" direction="ltr" writing-mode="lr-tb" unicode-bidi="normal" text-decoration="none" transform="matrix(1 0 0 1 3315.97 1802)">readdata</text><path d="M3242.5 1728.78 3690.75 1728.78 3690.75 1732.22 3242.5 1732.22ZM3664.11 1712.97 3694.16 1730.5 3664.11 1748.03C3663.29 1748.5 3662.24 1748.23 3661.76 1747.41 3661.28 1746.59 3661.56 1745.54 3662.38 1745.06L3689.88 1729.02 3689.88 1731.98 3662.38 1715.94C3661.56 1715.46 3661.28 1714.41 3661.76 1713.59 3662.24 1712.77 3663.29 1712.5 3664.11 1712.97Z" fill="#000000" fill-rule="nonzero" fill-opacity="1"/><text fill="#000000" fill-opacity="1" font-family="Roboto Light,Roboto Light_MSFontService,sans-serif" font-style="normal" font-variant="normal" font-weight="300" font-stretch="normal" font-size="69" text-anchor="start" direction="ltr" writing-mode="lr-tb" unicode-bidi="normal" text-decoration="none" transform="matrix(1 0 0 1 3315.97 1701)">writedata</text><path d="M2194.5 868.781 2325.26 868.781 2325.26 872.219 2194.5 872.219ZM2298.62 852.974 2328.67 870.5 2298.62 888.026C2297.8 888.505 2296.75 888.228 2296.27 887.408 2295.79 886.588 2296.07 885.536 2296.89 885.057L2324.39 869.016 2324.39 871.985 2296.89 855.943C2296.07 855.465 2295.79 854.412 2296.27 853.592 2296.75 852.773 2297.8 852.496 2298.62 852.974Z" fill="#000000" fill-rule="nonzero" fill-opacity="1"/><text fill="#000000" fill-opacity="1" font-family="Roboto Light,Roboto Light_MSFontService,sans-serif" font-style="normal" font-variant="normal" font-weight="300" font-stretch="normal" font-size="69" text-anchor="start" direction="ltr" writing-mode="lr-tb" unicode-bidi="normal" text-decoration="none" transform="matrix(1 0 0 1 2221.07 940)">clk</text><path d="M2194.5 1014.78 2323.75 1014.78 2323.75 1018.22 2194.5 1018.22ZM2297.11 998.974 2327.16 1016.5 2297.11 1034.03C2296.29 1034.5 2295.24 1034.23 2294.76 1033.41 2294.28 1032.59 2294.56 1031.54 2295.38 1031.06L2322.88 1015.02 2322.88 1017.98 2295.38 1001.94C2294.56 1001.46 2294.28 1000.41 2294.76 999.593 2295.24 998.773 2296.29 998.496 2297.11 998.974Z" fill="#000000" fill-rule="nonzero" fill-opacity="1"/><text fill="#000000" fill-opacity="1" font-family="Roboto Light,Roboto Light_MSFontService,sans-serif" font-style="normal" font-variant="normal" font-weight="300" font-stretch="normal" font-size="69" text-anchor="start" direction="ltr" writing-mode="lr-tb" unicode-bidi="normal" text-decoration="none" transform="matrix(1 0 0 1 2152.57 1090)">reset</text><path d="M4007.22 1273.5 4007.22 1435.77 4003.78 1435.77 4003.78 1273.5ZM4023.03 1409.13 4005.5 1439.18 3987.97 1409.13C3987.5 1408.31 3987.77 1407.26 3988.59 1406.78 3989.41 1406.3 3990.46 1406.58 3990.94 1407.4L4006.98 1434.9 4004.02 1434.9 4020.06 1407.4C4020.54 1406.58 4021.59 1406.3 4022.41 1406.78 4023.23 1407.26 4023.5 1408.31 4023.03 1409.13Z" fill="#000000" fill-rule="nonzero" fill-opacity="1"/><text fill="#000000" fill-opacity="1" font-family="Roboto Light,Roboto Light_MSFontService,sans-serif" font-style="normal" font-variant="normal" font-weight="300" font-stretch="normal" font-size="69" text-anchor="start" direction="ltr" writing-mode="lr-tb" unicode-bidi="normal" text-decoration="none" transform="matrix(1 0 0 1 4032.23 1377)">clk<tspan fill="#000000" fill-opacity="1" font-family="Roboto Light,Roboto Light_MSFontService,sans-serif" font-style="normal" font-variant="normal" font-weight="300" font-stretch="normal" font-size="69" text-anchor="start" direction="ltr" writing-mode="lr-tb" unicode-bidi="normal" text-decoration="none" x="-696.266" y="-505">RISC231</tspan></text></g></svg>